<svg viewBox="0 0 1280 640" xmlns="http://www.w3.org/2000/svg">
  <defs>
    <filter id="led-glow">
      <feGaussianBlur stdDeviation="1.5" result="blur"/>
      <feMerge><feMergeNode in="blur"/><feMergeNode in="SourceGraphic"/></feMerge>
    </filter>
    <filter id="led-glow-big">
      <feGaussianBlur stdDeviation="3" result="blur"/>
      <feMerge><feMergeNode in="blur"/><feMergeNode in="SourceGraphic"/></feMerge>
    </filter>
  </defs>
  <rect width="1280" height="640" fill="#050505"/>
  <!-- LED housing bezel -->
  <rect x="20" y="20" width="1240" height="600" rx="8" fill="#0a0a0a" stroke="#1a1a1a" stroke-width="3"/>
  <rect x="30" y="30" width="1220" height="580" rx="4" fill="#030303"/>
  <!-- Dot matrix grid background (faint inactive LEDs) -->
  <g opacity="0.05" fill="#333">
    <!-- Create a sparse grid pattern to suggest dot matrix -->
    <g transform="translate(50,50)">
      <!-- Just indicating the pattern, not every dot -->
      <circle cx="0" cy="0" r="2"/><circle cx="10" cy="0" r="2"/><circle cx="20" cy="0" r="2"/><circle cx="30" cy="0" r="2"/><circle cx="40" cy="0" r="2"/><circle cx="50" cy="0" r="2"/><circle cx="60" cy="0" r="2"/><circle cx="70" cy="0" r="2"/><circle cx="80" cy="0" r="2"/><circle cx="90" cy="0" r="2"/><circle cx="100" cy="0" r="2"/>
      <circle cx="0" cy="10" r="2"/><circle cx="10" cy="10" r="2"/><circle cx="20" cy="10" r="2"/><circle cx="30" cy="10" r="2"/><circle cx="40" cy="10" r="2"/><circle cx="50" cy="10" r="2"/><circle cx="60" cy="10" r="2"/><circle cx="70" cy="10" r="2"/><circle cx="80" cy="10" r="2"/><circle cx="90" cy="10" r="2"/><circle cx="100" cy="10" r="2"/>
    </g>
  </g>
  <!-- LED Element Display - Row 1 -->
  <g filter="url(#led-glow)" font-family="monospace">
    <g transform="translate(55,55)">
      <rect width="95" height="65" rx="2" fill="#0a0000" stroke="#1a0000" stroke-width="1"/>
      <text x="12" y="18" font-size="9" fill="#ff6b35" opacity="0.7">001</text>
      <text x="48" y="48" text-anchor="middle" font-size="28" font-weight="bold" fill="#ff6b35">Wa</text>
      <text x="48" y="60" text-anchor="middle" font-size="7" fill="#ff6b35" opacity="0.6">WATER</text>
    </g>
    <g transform="translate(160,55)">
      <rect width="95" height="65" rx="2" fill="#000a0a" stroke="#001a1a" stroke-width="1"/>
      <text x="12" y="18" font-size="9" fill="#4ecdc4" opacity="0.7">002</text>
      <text x="48" y="48" text-anchor="middle" font-size="28" font-weight="bold" fill="#4ecdc4">Fi</text>
      <text x="48" y="60" text-anchor="middle" font-size="7" fill="#4ecdc4" opacity="0.6">FIRE</text>
    </g>
    <g transform="translate(265,55)">
      <rect width="95" height="65" rx="2" fill="#050a00" stroke="#0a1a00" stroke-width="1"/>
      <text x="12" y="18" font-size="9" fill="#a8e06c" opacity="0.7">003</text>
      <text x="48" y="48" text-anchor="middle" font-size="28" font-weight="bold" fill="#a8e06c">Ea</text>
      <text x="48" y="60" text-anchor="middle" font-size="7" fill="#a8e06c" opacity="0.6">EARTH</text>
    </g>
    <g transform="translate(370,55)">
      <rect width="95" height="65" rx="2" fill="#0a0a00" stroke="#1a1a00" stroke-width="1"/>
      <text x="12" y="18" font-size="9" fill="#ffd93d" opacity="0.7">004</text>
      <text x="48" y="48" text-anchor="middle" font-size="28" font-weight="bold" fill="#ffd93d">Wi</text>
      <text x="48" y="60" text-anchor="middle" font-size="7" fill="#ffd93d" opacity="0.6">WIND</text>
    </g>
    <g transform="translate(475,55)">
      <rect width="95" height="65" rx="2" fill="#050008" stroke="#0a0012" stroke-width="1"/>
      <text x="12" y="18" font-size="9" fill="#c4b5fd" opacity="0.7">005</text>
      <text x="48" y="48" text-anchor="middle" font-size="28" font-weight="bold" fill="#c4b5fd">St</text>
      <text x="48" y="60" text-anchor="middle" font-size="7" fill="#c4b5fd" opacity="0.6">STEAM</text>
    </g>
    <g transform="translate(580,55)">
      <rect width="95" height="65" rx="2" fill="#0a0000" stroke="#1a0000" stroke-width="1"/>
      <text x="12" y="18" font-size="9" fill="#ff6b35" opacity="0.7">006</text>
      <text x="48" y="48" text-anchor="middle" font-size="28" font-weight="bold" fill="#ff6b35">Lv</text>
      <text x="48" y="60" text-anchor="middle" font-size="7" fill="#ff6b35" opacity="0.6">LAVA</text>
    </g>
    <g transform="translate(685,55)">
      <rect width="95" height="65" rx="2" fill="#000a0a" stroke="#001a1a" stroke-width="1"/>
      <text x="12" y="18" font-size="9" fill="#4ecdc4" opacity="0.7">007</text>
      <text x="48" y="48" text-anchor="middle" font-size="28" font-weight="bold" fill="#4ecdc4">Ic</text>
      <text x="48" y="60" text-anchor="middle" font-size="7" fill="#4ecdc4" opacity="0.6">ICE</text>
    </g>
    <g transform="translate(790,55)">
      <rect width="95" height="65" rx="2" fill="#050a00" stroke="#0a1a00" stroke-width="1"/>
      <text x="12" y="18" font-size="9" fill="#a8e06c" opacity="0.7">008</text>
      <text x="48" y="48" text-anchor="middle" font-size="28" font-weight="bold" fill="#a8e06c">Mu</text>
      <text x="48" y="60" text-anchor="middle" font-size="7" fill="#a8e06c" opacity="0.6">MUD</text>
    </g>
    <g transform="translate(895,55)">
      <rect width="95" height="65" rx="2" fill="#0a0a00" stroke="#1a1a00" stroke-width="1"/>
      <text x="12" y="18" font-size="9" fill="#ffd93d" opacity="0.7">009</text>
      <text x="48" y="48" text-anchor="middle" font-size="28" font-weight="bold" fill="#ffd93d">Sm</text>
      <text x="48" y="60" text-anchor="middle" font-size="7" fill="#ffd93d" opacity="0.6">SMOKE</text>
    </g>
    <g transform="translate(1000,55)">
      <rect width="95" height="65" rx="2" fill="#050008" stroke="#0a0012" stroke-width="1"/>
      <text x="12" y="18" font-size="9" fill="#c4b5fd" opacity="0.7">010</text>
      <text x="48" y="48" text-anchor="middle" font-size="28" font-weight="bold" fill="#c4b5fd">Du</text>
      <text x="48" y="60" text-anchor="middle" font-size="7" fill="#c4b5fd" opacity="0.6">DUST</text>
    </g>
    <g transform="translate(1105,55)">
      <rect width="95" height="65" rx="2" fill="#0a0000" stroke="#1a0000" stroke-width="1"/>
      <text x="12" y="18" font-size="9" fill="#ff6b35" opacity="0.7">011</text>
      <text x="48" y="48" text-anchor="middle" font-size="28" font-weight="bold" fill="#ff6b35">Pl</text>
      <text x="48" y="60" text-anchor="middle" font-size="7" fill="#ff6b35" opacity="0.6">PLANT</text>
    </g>
    <!-- Row 2 -->
    <g transform="translate(55,130)">
      <rect width="95" height="65" rx="2" fill="#000a0a" stroke="#001a1a" stroke-width="1"/>
      <text x="12" y="18" font-size="9" fill="#4ecdc4" opacity="0.7">012</text>
      <text x="48" y="48" text-anchor="middle" font-size="28" font-weight="bold" fill="#4ecdc4">Vo</text>
      <text x="48" y="60" text-anchor="middle" font-size="7" fill="#4ecdc4" opacity="0.6">VOLCANO</text>
    </g>
    <g transform="translate(160,130)">
      <rect width="95" height="65" rx="2" fill="#050a00" stroke="#0a1a00" stroke-width="1"/>
      <text x="12" y="18" font-size="9" fill="#a8e06c" opacity="0.7">013</text>
      <text x="48" y="48" text-anchor="middle" font-size="28" font-weight="bold" fill="#a8e06c">Gl</text>
      <text x="48" y="60" text-anchor="middle" font-size="7" fill="#a8e06c" opacity="0.6">GLASS</text>
    </g>
    <g transform="translate(265,130)">
      <rect width="95" height="65" rx="2" fill="#0a0a00" stroke="#1a1a00" stroke-width="1"/>
      <text x="12" y="18" font-size="9" fill="#ffd93d" opacity="0.7">014</text>
      <text x="48" y="48" text-anchor="middle" font-size="28" font-weight="bold" fill="#ffd93d">Rn</text>
      <text x="48" y="60" text-anchor="middle" font-size="7" fill="#ffd93d" opacity="0.6">RAIN</text>
    </g>
    <g transform="translate(370,130)">
      <rect width="95" height="65" rx="2" fill="#050008" stroke="#0a0012" stroke-width="1"/>
      <text x="12" y="18" font-size="9" fill="#c4b5fd" opacity="0.7">015</text>
      <text x="48" y="48" text-anchor="middle" font-size="28" font-weight="bold" fill="#c4b5fd">Sn</text>
      <text x="48" y="60" text-anchor="middle" font-size="7" fill="#c4b5fd" opacity="0.6">SNOW</text>
    </g>
    <g transform="translate(475,130)">
      <rect width="95" height="65" rx="2" fill="#0a0000" stroke="#1a0000" stroke-width="1"/>
      <text x="12" y="18" font-size="9" fill="#ff6b35" opacity="0.7">016</text>
      <text x="48" y="48" text-anchor="middle" font-size="28" font-weight="bold" fill="#ff6b35">Cr</text>
      <text x="48" y="60" text-anchor="middle" font-size="7" fill="#ff6b35" opacity="0.6">CRYSTAL</text>
    </g>
    <g transform="translate(580,130)">
      <rect width="95" height="65" rx="2" fill="#000a0a" stroke="#001a1a" stroke-width="1"/>
      <text x="12" y="18" font-size="9" fill="#4ecdc4" opacity="0.7">017</text>
      <text x="48" y="48" text-anchor="middle" font-size="28" font-weight="bold" fill="#4ecdc4">Pg</text>
      <text x="48" y="60" text-anchor="middle" font-size="7" fill="#4ecdc4" opacity="0.6">PENGUIN</text>
    </g>
    <g transform="translate(685,130)" opacity="0.7">
      <rect width="95" height="65" rx="2" fill="#050a00" stroke="#0a1a00" stroke-width="1"/>
      <text x="48" y="48" text-anchor="middle" font-size="28" font-weight="bold" fill="#a8e06c">Lk</text>
    </g>
    <g transform="translate(790,130)" opacity="0.5">
      <rect width="95" height="65" rx="2" fill="#0a0a00" stroke="#1a1a00" stroke-width="1"/>
      <text x="48" y="48" text-anchor="middle" font-size="28" font-weight="bold" fill="#ffd93d">Hy</text>
    </g>
    <g transform="translate(895,130)" opacity="0.3">
      <rect width="95" height="65" rx="2" fill="#050008" stroke="#0a0012" stroke-width="1"/>
      <text x="48" y="48" text-anchor="middle" font-size="28" font-weight="bold" fill="#c4b5fd">Nv</text>
    </g>
    <g transform="translate(1000,130)" opacity="0.15">
      <rect width="95" height="65" rx="2" fill="#0a0000" stroke="#1a0000" stroke-width="1"/>
      <text x="48" y="48" text-anchor="middle" font-size="20" fill="#ff6b35">...</text>
    </g>
  </g>
  <!-- LED scrolling title display -->
  <rect x="50" y="260" width="1180" height="120" rx="4" fill="#050505" stroke="#1a1a1a" stroke-width="2"/>
  <g filter="url(#led-glow-big)">
    <text x="640" y="340" text-anchor="middle" font-family="monospace" font-size="72" font-weight="bold" fill="#ff6b35" letter-spacing="6">INFINITE CRAFT</text>
  </g>
  <!-- Status bar -->
  <rect x="50" y="400" width="1180" height="50" rx="4" fill="#050505" stroke="#1a1a1a" stroke-width="1"/>
  <g filter="url(#led-glow)" font-family="monospace">
    <text x="80" y="432" font-size="14" fill="#4ecdc4">STATUS: ACTIVE</text>
    <text x="400" y="432" font-size="14" fill="#a8e06c">ELEMENTS: 8,579</text>
    <text x="700" y="432" font-size="14" fill="#ffd93d">COMBINATIONS: 2,451,832</text>
    <text x="1100" y="432" font-size="14" fill="#ff6b35">LIVE</text>
    <!-- Blinking dot -->
    <circle cx="1148" cy="427" r="4" fill="#ff6b35"/>
  </g>
  <!-- Bottom info panels -->
  <g filter="url(#led-glow)" font-family="monospace">
    <rect x="50" y="470" width="380" height="120" rx="4" fill="#050505" stroke="#1a1a1a" stroke-width="1"/>
    <text x="70" y="498" font-size="11" fill="#4ecdc4">LATEST DISCOVERIES</text>
    <text x="70" y="518" font-size="10" fill="#c4b5fd">8579: Quantum Penguin</text>
    <text x="70" y="534" font-size="10" fill="#c4b5fd">8578: Solar Tsunami</text>
    <text x="70" y="550" font-size="10" fill="#c4b5fd">8577: Crystal Dragon</text>
    <text x="70" y="566" font-size="10" fill="#c4b5fd">8576: Lava Whale</text>
    <text x="70" y="582" font-size="10" fill="#c4b5fd">8575: Diamond Rain</text>

    <rect x="450" y="470" width="380" height="120" rx="4" fill="#050505" stroke="#1a1a1a" stroke-width="1"/>
    <text x="470" y="498" font-size="11" fill="#a8e06c">ELEMENT CATEGORIES</text>
    <text x="470" y="520" font-size="10" fill="#ff6b35">Natural ........ 2,341</text>
    <text x="470" y="536" font-size="10" fill="#4ecdc4">Mythical ....... 1,876</text>
    <text x="470" y="552" font-size="10" fill="#a8e06c">Cosmic ......... 1,544</text>
    <text x="470" y="568" font-size="10" fill="#ffd93d">Hybrid ......... 1,402</text>
    <text x="470" y="584" font-size="10" fill="#c4b5fd">Abstract ....... 1,416</text>

    <rect x="850" y="470" width="380" height="120" rx="4" fill="#050505" stroke="#1a1a1a" stroke-width="1"/>
    <text x="870" y="498" font-size="11" fill="#ffd93d">SYSTEM METRICS</text>
    <text x="870" y="520" font-size="10" fill="#ff6b35">Uptime: 47d 12h 33m</text>
    <text x="870" y="536" font-size="10" fill="#4ecdc4">Workers: 4 / 4 active</text>
    <text x="870" y="552" font-size="10" fill="#a8e06c">Rate: 12.3 elem/hr</text>
    <text x="870" y="568" font-size="10" fill="#ffd93d">Next pulse: 02:47:12</text>
    <text x="870" y="584" font-size="10" fill="#c4b5fd">DB Size: 2.4 MB</text>
  </g>
  <!-- Power indicator -->
  <circle cx="45" cy="615" r="3" fill="#a8e06c"/>
  <text x="55" y="618" font-family="monospace" font-size="8" fill="#555">PWR</text>
</svg>