<svg viewBox="0 0 1280 640" xmlns="http://www.w3.org/2000/svg">
  <defs>
    <filter id="paper-shadow">
      <feDropShadow dx="3" dy="3" stdDeviation="4" flood-color="#000" flood-opacity="0.5"/>
    </filter>
    <filter id="emboss">
      <feGaussianBlur stdDeviation="0.5" result="blur"/>
      <feMerge><feMergeNode in="blur"/><feMergeNode in="SourceGraphic"/></feMerge>
    </filter>
  </defs>
  <!-- Dark background suggesting old office -->
  <rect width="1280" height="640" fill="#1a1815"/>
  <!-- Desk surface -->
  <rect x="0" y="0" width="1280" height="640" fill="#2a2520" opacity="0.8"/>
  <!-- Main punch card -->
  <rect x="90" y="60" width="1100" height="430" rx="0" fill="#f5f0d8" filter="url(#paper-shadow)"/>
  <!-- Cut corner -->
  <polygon points="90,60 90,100 130,60" fill="#2a2520"/>
  <!-- Card header text -->
  <text x="640" y="95" text-anchor="middle" font-family="'Courier New', monospace" font-size="16" fill="#4a4030" font-weight="bold" letter-spacing="6">INFINITE CRAFT COMBINATION CARD</text>
  <!-- Column numbers -->
  <g font-family="'Courier New', monospace" font-size="7" fill="#8a7a5a">
    <text x="150" y="115">0</text><text x="170" y="115">1</text><text x="190" y="115">2</text><text x="210" y="115">3</text><text x="230" y="115">4</text><text x="250" y="115">5</text><text x="270" y="115">6</text><text x="290" y="115">7</text><text x="310" y="115">8</text><text x="330" y="115">9</text>
    <text x="360" y="115">0</text><text x="380" y="115">1</text><text x="400" y="115">2</text><text x="420" y="115">3</text><text x="440" y="115">4</text><text x="460" y="115">5</text><text x="480" y="115">6</text><text x="500" y="115">7</text><text x="520" y="115">8</text><text x="540" y="115">9</text>
    <text x="570" y="115">0</text><text x="590" y="115">1</text><text x="610" y="115">2</text><text x="630" y="115">3</text><text x="650" y="115">4</text><text x="670" y="115">5</text><text x="690" y="115">6</text><text x="710" y="115">7</text><text x="730" y="115">8</text><text x="750" y="115">9</text>
    <text x="780" y="115">0</text><text x="800" y="115">1</text><text x="820" y="115">2</text><text x="840" y="115">3</text><text x="860" y="115">4</text><text x="880" y="115">5</text><text x="900" y="115">6</text><text x="920" y="115">7</text><text x="940" y="115">8</text><text x="960" y="115">9</text>
    <text x="990" y="115">0</text><text x="1010" y="115">1</text><text x="1030" y="115">2</text><text x="1050" y="115">3</text><text x="1070" y="115">4</text><text x="1090" y="115">5</text><text x="1110" y="115">6</text><text x="1130" y="115">7</text>
  </g>
  <!-- Row labels -->
  <g font-family="'Courier New', monospace" font-size="8" fill="#8a7a5a">
    <text x="120" y="138">12</text><text x="120" y="158">11</text><text x="120" y="178">0</text><text x="120" y="198">1</text><text x="120" y="218">2</text><text x="120" y="238">3</text><text x="120" y="258">4</text><text x="120" y="278">5</text><text x="120" y="298">6</text><text x="120" y="318">7</text><text x="120" y="338">8</text><text x="120" y="358">9</text>
  </g>
  <!-- Punch holes - create a pattern that encodes element data -->
  <!-- Use colored highlighting to show element sections -->
  <!-- FIRE section -->
  <rect x="145" y="122" width="195" height="245" fill="#ff6b35" opacity="0.05" rx="2"/>
  <text x="242" y="380" text-anchor="middle" font-family="'Courier New', monospace" font-size="9" fill="#ff6b35">F I R E</text>
  <!-- FIRE punches -->
  <g fill="#2a2520">
    <rect x="148" y="130" width="14" height="6" rx="1"/><rect x="188" y="130" width="14" height="6" rx="1"/><rect x="228" y="130" width="14" height="6" rx="1"/><rect x="308" y="130" width="14" height="6" rx="1"/>
    <rect x="168" y="150" width="14" height="6" rx="1"/><rect x="248" y="150" width="14" height="6" rx="1"/><rect x="288" y="150" width="14" height="6" rx="1"/>
    <rect x="148" y="170" width="14" height="6" rx="1"/><rect x="208" y="170" width="14" height="6" rx="1"/><rect x="268" y="170" width="14" height="6" rx="1"/><rect x="328" y="170" width="14" height="6" rx="1"/>
    <rect x="168" y="190" width="14" height="6" rx="1"/><rect x="228" y="190" width="14" height="6" rx="1"/>
    <rect x="148" y="210" width="14" height="6" rx="1"/><rect x="188" y="210" width="14" height="6" rx="1"/><rect x="248" y="210" width="14" height="6" rx="1"/><rect x="308" y="210" width="14" height="6" rx="1"/>
    <rect x="208" y="230" width="14" height="6" rx="1"/><rect x="268" y="230" width="14" height="6" rx="1"/><rect x="328" y="230" width="14" height="6" rx="1"/>
    <rect x="148" y="250" width="14" height="6" rx="1"/><rect x="188" y="250" width="14" height="6" rx="1"/><rect x="228" y="250" width="14" height="6" rx="1"/>
    <rect x="168" y="270" width="14" height="6" rx="1"/><rect x="288" y="270" width="14" height="6" rx="1"/>
    <rect x="148" y="290" width="14" height="6" rx="1"/><rect x="208" y="290" width="14" height="6" rx="1"/><rect x="248" y="290" width="14" height="6" rx="1"/><rect x="328" y="290" width="14" height="6" rx="1"/>
    <rect x="188" y="310" width="14" height="6" rx="1"/><rect x="268" y="310" width="14" height="6" rx="1"/>
    <rect x="148" y="330" width="14" height="6" rx="1"/><rect x="228" y="330" width="14" height="6" rx="1"/><rect x="308" y="330" width="14" height="6" rx="1"/>
    <rect x="168" y="350" width="14" height="6" rx="1"/><rect x="208" y="350" width="14" height="6" rx="1"/><rect x="288" y="350" width="14" height="6" rx="1"/>
  </g>
  <!-- WATER section -->
  <rect x="355" y="122" width="195" height="245" fill="#4ecdc4" opacity="0.05" rx="2"/>
  <text x="452" y="380" text-anchor="middle" font-family="'Courier New', monospace" font-size="9" fill="#4ecdc4">W A T E R</text>
  <g fill="#2a2520">
    <rect x="358" y="130" width="14" height="6" rx="1"/><rect x="398" y="130" width="14" height="6" rx="1"/><rect x="478" y="130" width="14" height="6" rx="1"/>
    <rect x="378" y="150" width="14" height="6" rx="1"/><rect x="438" y="150" width="14" height="6" rx="1"/><rect x="518" y="150" width="14" height="6" rx="1"/>
    <rect x="358" y="170" width="14" height="6" rx="1"/><rect x="418" y="170" width="14" height="6" rx="1"/><rect x="498" y="170" width="14" height="6" rx="1"/><rect x="538" y="170" width="14" height="6" rx="1"/>
    <rect x="378" y="190" width="14" height="6" rx="1"/><rect x="458" y="190" width="14" height="6" rx="1"/>
    <rect x="358" y="210" width="14" height="6" rx="1"/><rect x="398" y="210" width="14" height="6" rx="1"/><rect x="478" y="210" width="14" height="6" rx="1"/><rect x="538" y="210" width="14" height="6" rx="1"/>
    <rect x="418" y="230" width="14" height="6" rx="1"/><rect x="498" y="230" width="14" height="6" rx="1"/>
    <rect x="358" y="250" width="14" height="6" rx="1"/><rect x="378" y="250" width="14" height="6" rx="1"/><rect x="438" y="250" width="14" height="6" rx="1"/>
    <rect x="398" y="270" width="14" height="6" rx="1"/><rect x="518" y="270" width="14" height="6" rx="1"/>
    <rect x="358" y="290" width="14" height="6" rx="1"/><rect x="458" y="290" width="14" height="6" rx="1"/><rect x="538" y="290" width="14" height="6" rx="1"/>
    <rect x="378" y="310" width="14" height="6" rx="1"/><rect x="438" y="310" width="14" height="6" rx="1"/>
    <rect x="418" y="330" width="14" height="6" rx="1"/><rect x="478" y="330" width="14" height="6" rx="1"/><rect x="518" y="330" width="14" height="6" rx="1"/>
    <rect x="358" y="350" width="14" height="6" rx="1"/><rect x="398" y="350" width="14" height="6" rx="1"/><rect x="498" y="350" width="14" height="6" rx="1"/>
  </g>
  <!-- EARTH section -->
  <rect x="565" y="122" width="195" height="245" fill="#a8e06c" opacity="0.05" rx="2"/>
  <text x="662" y="380" text-anchor="middle" font-family="'Courier New', monospace" font-size="9" fill="#a8e06c">E A R T H</text>
  <g fill="#2a2520">
    <rect x="568" y="130" width="14" height="6" rx="1"/><rect x="628" y="130" width="14" height="6" rx="1"/><rect x="708" y="130" width="14" height="6" rx="1"/>
    <rect x="588" y="150" width="14" height="6" rx="1"/><rect x="648" y="150" width="14" height="6" rx="1"/><rect x="728" y="150" width="14" height="6" rx="1"/>
    <rect x="568" y="170" width="14" height="6" rx="1"/><rect x="608" y="170" width="14" height="6" rx="1"/><rect x="688" y="170" width="14" height="6" rx="1"/><rect x="748" y="170" width="14" height="6" rx="1"/>
    <rect x="628" y="190" width="14" height="6" rx="1"/><rect x="668" y="190" width="14" height="6" rx="1"/>
    <rect x="568" y="210" width="14" height="6" rx="1"/><rect x="608" y="210" width="14" height="6" rx="1"/><rect x="708" y="210" width="14" height="6" rx="1"/>
    <rect x="588" y="230" width="14" height="6" rx="1"/><rect x="648" y="230" width="14" height="6" rx="1"/><rect x="748" y="230" width="14" height="6" rx="1"/>
    <rect x="568" y="250" width="14" height="6" rx="1"/><rect x="628" y="250" width="14" height="6" rx="1"/><rect x="688" y="250" width="14" height="6" rx="1"/>
    <rect x="608" y="270" width="14" height="6" rx="1"/><rect x="728" y="270" width="14" height="6" rx="1"/>
    <rect x="568" y="290" width="14" height="6" rx="1"/><rect x="648" y="290" width="14" height="6" rx="1"/><rect x="708" y="290" width="14" height="6" rx="1"/>
    <rect x="588" y="310" width="14" height="6" rx="1"/><rect x="668" y="310" width="14" height="6" rx="1"/><rect x="748" y="310" width="14" height="6" rx="1"/>
    <rect x="568" y="330" width="14" height="6" rx="1"/><rect x="608" y="330" width="14" height="6" rx="1"/><rect x="728" y="330" width="14" height="6" rx="1"/>
    <rect x="648" y="350" width="14" height="6" rx="1"/><rect x="688" y="350" width="14" height="6" rx="1"/>
  </g>
  <!-- WIND section -->
  <rect x="775" y="122" width="195" height="245" fill="#c4b5fd" opacity="0.05" rx="2"/>
  <text x="872" y="380" text-anchor="middle" font-family="'Courier New', monospace" font-size="9" fill="#c4b5fd">W I N D</text>
  <g fill="#2a2520">
    <rect x="778" y="130" width="14" height="6" rx="1"/><rect x="838" y="130" width="14" height="6" rx="1"/><rect x="918" y="130" width="14" height="6" rx="1"/>
    <rect x="798" y="150" width="14" height="6" rx="1"/><rect x="858" y="150" width="14" height="6" rx="1"/><rect x="938" y="150" width="14" height="6" rx="1"/>
    <rect x="778" y="170" width="14" height="6" rx="1"/><rect x="818" y="170" width="14" height="6" rx="1"/><rect x="898" y="170" width="14" height="6" rx="1"/><rect x="958" y="170" width="14" height="6" rx="1"/>
    <rect x="838" y="190" width="14" height="6" rx="1"/><rect x="878" y="190" width="14" height="6" rx="1"/>
    <rect x="778" y="210" width="14" height="6" rx="1"/><rect x="818" y="210" width="14" height="6" rx="1"/><rect x="918" y="210" width="14" height="6" rx="1"/>
    <rect x="798" y="230" width="14" height="6" rx="1"/><rect x="858" y="230" width="14" height="6" rx="1"/><rect x="958" y="230" width="14" height="6" rx="1"/>
    <rect x="778" y="250" width="14" height="6" rx="1"/><rect x="838" y="250" width="14" height="6" rx="1"/><rect x="898" y="250" width="14" height="6" rx="1"/>
    <rect x="818" y="270" width="14" height="6" rx="1"/><rect x="938" y="270" width="14" height="6" rx="1"/>
    <rect x="778" y="290" width="14" height="6" rx="1"/><rect x="858" y="290" width="14" height="6" rx="1"/><rect x="918" y="290" width="14" height="6" rx="1"/>
    <rect x="798" y="310" width="14" height="6" rx="1"/><rect x="878" y="310" width="14" height="6" rx="1"/><rect x="958" y="310" width="14" height="6" rx="1"/>
    <rect x="778" y="330" width="14" height="6" rx="1"/><rect x="818" y="330" width="14" height="6" rx="1"/><rect x="938" y="330" width="14" height="6" rx="1"/>
    <rect x="858" y="350" width="14" height="6" rx="1"/><rect x="898" y="350" width="14" height="6" rx="1"/>
  </g>
  <!-- Printed header on card -->
  <text x="150" y="420" font-family="'Courier New', monospace" font-size="13" fill="#6a5a3a" letter-spacing="1.5">INFINITE CRAFT   COMB. ENGINE V2.0   CARD 0001 OF 9999   DO NOT FOLD SPINDLE OR MUTILATE</text>
  <!-- Large printed title along bottom of card -->
  <text x="640" y="468" text-anchor="middle" font-family="'Courier New', monospace" font-size="36" fill="#3a3020" font-weight="bold" letter-spacing="10">INFINITE CRAFT</text>
  <!-- Card number stamped -->
  <text x="1120" y="85" font-family="'Courier New', monospace" font-size="20" fill="#8a2020" font-weight="bold" transform="rotate(-5,1120,85)">002026</text>
  <!-- Pencil marks -->
  <text x="1000" y="440" font-family="'Comic Sans MS', cursive" font-size="11" fill="#6a6a5a" opacity="0.5" transform="rotate(-3,1000,440)">verified 2/24</text>
  <!-- Title below card -->
  <text x="640" y="545" text-anchor="middle" font-family="'Courier New', monospace" font-size="42" fill="#f5f0d8" font-weight="bold" letter-spacing="8">INFINITE CRAFT</text>
  <text x="640" y="580" text-anchor="middle" font-family="'Courier New', monospace" font-size="14" fill="#8a7a5a" letter-spacing="4">HOLLERITH PUNCH CARD FORMAT</text>
</svg>